<?xml version="1.0" standalone="no"?>
<!DOCTYPE svg PUBLIC "-//W3C//DTD SVG 20010904//EN"
 "http://www.w3.org/TR/2001/REC-SVG-20010904/DTD/svg10.dtd">
<svg version="1.0" xmlns="http://www.w3.org/2000/svg"
 width="500.000000pt" height="500.000000pt" viewBox="0 0 500.000000 500.000000"
 preserveAspectRatio="xMidYMid meet">

<g transform="translate(0.000000,500.000000) scale(0.100000,-0.100000)"
fill="#000000" stroke="none">
<path d="M2346 3923 c3 -16 0 -41 -6 -58 l-11 -30 -19 25 c-11 14 -20 37 -20
53 0 18 -5 27 -16 27 -12 0 -14 -7 -8 -32 3 -18 14 -48 22 -66 13 -26 21 -32
41 -30 28 3 38 27 40 96 1 31 -3 42 -14 42 -11 0 -13 -7 -9 -27z"/>
<path d="M2676 3918 c-3 -13 -7 -42 -10 -65 -6 -38 -4 -43 13 -43 11 0 21 6
24 13 3 8 11 3 25 -13 l20 -25 10 26 c17 44 25 119 14 119 -6 0 -14 -16 -18
-35 -7 -38 -19 -52 -29 -35 -5 8 -11 7 -21 -1 -12 -10 -13 -4 -8 35 5 31 3 46
-4 46 -7 0 -14 -10 -16 -22z"/>
<path d="M2097 3898 c-21 -6 -36 -15 -34 -22 2 -6 10 -35 17 -63 8 -29 18 -53
23 -53 27 0 87 25 87 36 0 9 -8 10 -32 3 -43 -12 -48 -12 -48 5 0 8 14 17 30
21 17 4 30 13 30 21 0 11 -6 13 -22 8 -35 -11 -50 -10 -55 2 -2 6 11 15 28 20
18 5 34 15 37 22 4 14 -8 14 -61 0z"/>
<path d="M2866 3834 c-10 -31 -14 -60 -9 -64 12 -12 84 -33 90 -27 10 11 -7
26 -37 32 -17 4 -30 13 -30 21 0 11 9 13 40 8 47 -8 56 11 10 21 -17 4 -30 13
-30 22 0 15 23 15 63 -2 12 -5 17 -3 17 8 0 15 -48 37 -80 37 -11 0 -22 -17
-34 -56z"/>
<path d="M1903 3824 c-18 -8 -33 -18 -33 -23 0 -24 45 -111 57 -111 22 0 70
28 76 44 8 19 -34 101 -53 103 -8 1 -30 -5 -47 -13z m63 -46 c15 -30 15 -32
-2 -45 -26 -19 -33 -17 -51 23 -15 31 -15 36 -3 44 26 16 39 11 56 -22z"/>
<path d="M3053 3768 c-15 -29 -29 -56 -31 -59 -5 -10 76 -42 91 -36 8 3 23 23
35 45 16 32 18 43 9 55 -14 17 -58 47 -69 47 -4 0 -20 -24 -35 -52z m84 -12
c-4 -12 -37 -9 -51 4 -4 5 -5 13 -2 19 9 13 58 -8 53 -23z m-46 -26 c17 -10
27 -40 13 -40 -16 0 -44 23 -44 35 0 18 5 18 31 5z"/>
<path d="M1551 3590 l-33 -29 45 -48 c50 -53 61 -53 100 -1 l19 26 -32 41
c-19 23 -40 41 -49 41 -9 -1 -31 -14 -50 -30z m79 -25 c24 -25 24 -26 4 -45
-20 -20 -20 -20 -49 11 -29 30 -29 31 -11 45 26 19 29 18 56 -11z"/>
<path d="M1415 3441 c-12 -38 62 -141 80 -111 3 5 0 12 -5 15 -16 10 18 45 42
45 31 0 16 23 -32 48 -54 27 -77 28 -85 3z m53 -17 c26 -7 27 -13 8 -39 -13
-18 -14 -17 -30 13 -17 33 -15 36 22 26z"/>
<path d="M1315 3310 c-3 -6 1 -17 9 -26 27 -27 20 -46 -16 -42 -18 2 -33 -2
-35 -9 -5 -15 31 -26 58 -18 12 4 32 1 45 -6 35 -18 42 -2 11 27 -15 14 -27
33 -27 44 0 22 -35 46 -45 30z"/>
<path d="M1216 3113 c-9 -10 -37 -75 -34 -79 6 -5 109 -44 118 -44 19 0 10 22
-10 27 -33 9 -20 37 18 41 37 4 44 22 7 22 -14 0 -29 8 -35 20 -11 20 -49 27
-64 13z m39 -23 c3 -5 1 -19 -5 -31 -15 -27 -35 -10 -25 20 7 22 20 27 30 11z"/>
<path d="M3740 3066 c0 -3 7 -23 15 -43 18 -44 19 -40 -5 -46 -15 -4 -24 2
-36 25 -19 37 -30 31 -12 -7 11 -24 10 -29 -7 -41 -18 -13 -21 -11 -38 22 -10
20 -21 34 -23 31 -6 -6 28 -77 37 -77 3 0 32 12 63 26 l56 25 -21 42 c-23 45
-29 54 -29 43z"/>
<path d="M2481 2516 c-112 -289 -201 -532 -198 -540 8 -19 23 -21 30 -3 21 53
307 790 332 857 18 47 42 108 52 135 21 51 20 75 -1 75 -6 0 -103 -235 -215
-524z"/>
<path d="M3755 2858 c-16 -5 -36 -12 -44 -14 -8 -2 -11 -7 -8 -10 3 -3 29 2
57 11 55 18 64 15 74 -27 6 -25 3 -28 -50 -45 -31 -9 -51 -19 -45 -21 6 -2 33
4 61 13 53 18 59 30 40 79 -10 28 -32 32 -85 14z"/>
<path d="M2008 2677 c-114 -89 -207 -169 -207 -177 0 -18 403 -335 426 -335 9
0 18 5 20 10 1 6 -85 79 -192 164 -107 85 -195 157 -195 161 0 6 127 109 372
301 21 16 18 39 -5 38 -7 0 -105 -73 -219 -162z"/>
<path d="M2754 2829 c-4 -7 -1 -17 7 -23 117 -88 379 -300 379 -306 0 -4 -88
-76 -195 -161 -107 -85 -195 -158 -195 -162 0 -32 47 -5 212 124 205 159 238
188 237 203 0 13 -403 329 -423 334 -8 2 -17 -2 -22 -9z"/>
<path d="M3767 2659 c-14 -8 -16 -18 -11 -47 7 -40 20 -54 44 -48 8 2 32 7 53
11 28 4 37 11 37 25 0 11 5 20 10 20 6 0 10 5 10 11 0 5 -4 8 -9 4 -5 -3 -12
4 -16 15 -5 16 -15 20 -53 20 -26 0 -55 -5 -65 -11z m107 -15 c18 -47 -1 -64
-71 -64 -31 0 -33 2 -33 34 0 28 4 35 23 39 49 9 75 7 81 -9z"/>
<path d="M3773 2420 c0 -30 2 -45 4 -32 4 19 10 22 58 22 48 0 54 -3 58 -22 2
-13 4 2 4 32 0 30 -2 45 -4 33 -4 -20 -10 -23 -58 -23 -48 0 -54 3 -58 23 -2
12 -4 -3 -4 -33z"/>
<path d="M3757 2267 c-4 -10 -6 -33 -6 -50 1 -20 3 -25 6 -13 4 17 12 18 66
13 65 -6 54 6 -15 18 -28 4 -37 11 -40 28 -3 20 -4 20 -11 4z"/>
<path d="M1235 2135 c-37 -11 -40 -15 -37 -46 4 -52 21 -63 73 -49 58 15 70
31 56 75 -12 39 -24 42 -92 20z m80 -26 c8 -37 2 -44 -47 -57 -41 -11 -54 -4
-60 37 -2 20 3 26 37 36 59 19 63 18 70 -16z"/>
<path d="M3734 2073 c-12 -2 -24 -13 -27 -23 -6 -23 44 -65 89 -76 26 -6 27
-5 11 7 -15 12 -16 19 -7 46 9 24 16 30 33 27 16 -3 13 0 -8 10 -30 15 -51 17
-91 9z m54 -47 l-11 -34 -28 21 c-38 27 -37 45 4 49 44 5 47 3 35 -36z"/>
<path d="M1303 1945 c-29 -13 -53 -27 -53 -32 1 -4 9 -24 20 -43 21 -38 27
-27 8 15 -10 22 -9 28 3 36 23 14 29 11 40 -21 6 -16 15 -30 19 -30 5 0 3 15
-5 34 -14 33 -14 35 6 41 24 8 21 9 42 -30 9 -16 16 -24 17 -17 0 17 -29 72
-38 71 -4 0 -31 -11 -59 -24z"/>
<path d="M1408 1933 c7 -3 16 -2 19 1 4 3 -2 6 -13 5 -11 0 -14 -3 -6 -6z"/>
<path d="M3663 1903 c2 -10 8 -26 12 -35 6 -14 2 -18 -18 -18 -47 0 -38 -19
23 -50 33 -17 60 -27 60 -22 0 4 -21 19 -47 32 -46 23 -47 24 -20 28 20 2 27
8 23 18 -3 8 -9 21 -12 30 -5 12 5 10 45 -10 28 -15 51 -23 51 -18 0 7 -103
62 -116 62 -4 0 -4 -8 -1 -17z"/>
<path d="M1401 1769 c-56 -57 -54 -85 7 -82 24 1 55 9 69 18 31 21 23 32 -9
12 -12 -8 -37 -17 -55 -20 -49 -9 -50 16 -2 64 22 22 39 43 36 45 -2 3 -23
-14 -46 -37z"/>
<path d="M3564 1742 c-12 -9 -44 -54 -44 -63 0 -10 101 -81 107 -75 3 2 -7 12
-21 21 -21 14 -24 20 -15 37 9 16 18 19 52 14 41 -5 42 -5 10 6 -18 6 -33 16
-33 23 0 11 -31 45 -41 45 -2 0 -9 -4 -15 -8z m32 -27 c4 -8 -1 -27 -11 -41
-16 -24 -18 -25 -35 -9 -18 16 -18 19 -2 41 20 27 40 31 48 9z"/>
<path d="M1506 1607 l-49 -43 33 -37 c18 -21 35 -35 38 -32 3 3 -7 19 -23 35
-28 29 -28 31 -11 48 16 16 18 16 42 -12 31 -35 42 -29 13 8 -20 26 -20 29 -5
44 15 15 18 14 46 -18 16 -19 29 -31 30 -27 0 9 -53 77 -60 77 -3 0 -27 -20
-54 -43z"/>
<path d="M3422 1577 c-30 -32 -28 -48 11 -85 39 -38 56 -40 85 -9 31 33 28 51
-15 86 -45 37 -53 38 -81 8z m86 -30 c25 -27 22 -46 -10 -66 -19 -12 -24 -10
-55 21 l-34 34 21 27 c24 30 38 27 78 -16z"/>
<path d="M1642 1461 l-42 -49 40 -32 c22 -17 40 -28 40 -23 0 5 -14 19 -30 32
l-31 22 42 50 c22 27 37 49 31 49 -5 0 -28 -22 -50 -49z"/>
<path d="M3280 1443 l-30 -28 36 -47 c20 -27 41 -48 47 -48 5 0 3 8 -6 18 -22
25 -21 31 9 54 14 11 23 23 20 25 -3 3 -17 -4 -32 -16 -25 -20 -29 -20 -43 -6
-15 15 -13 19 19 46 19 16 29 29 22 29 -6 0 -25 -12 -42 -27z"/>
<path d="M1800 1346 c-16 -25 -30 -49 -30 -54 0 -15 68 -55 80 -47 5 3 22 27
37 52 l27 46 -30 23 c-16 13 -34 24 -41 24 -7 0 -26 -20 -43 -44z m87 -1 c6
-16 -33 -85 -48 -85 -21 0 -49 21 -49 37 0 9 11 31 26 50 21 28 28 32 45 22
11 -5 23 -17 26 -24z"/>
<path d="M3164 1358 c3 -10 9 -24 12 -32 4 -12 -2 -13 -37 -5 -23 5 -44 7 -48
4 -7 -8 49 -115 61 -115 5 0 -3 20 -18 45 -14 25 -24 48 -22 51 3 2 23 2 46
-2 29 -5 43 -13 51 -31 7 -14 14 -23 17 -20 6 6 -27 73 -51 102 -14 16 -16 17
-11 3z"/>
<path d="M1971 1251 c-24 -57 -28 -90 -5 -48 11 21 20 27 32 22 42 -18 55 -17
68 0 22 30 17 45 -21 61 -19 7 -38 14 -43 14 -5 0 -19 -22 -31 -49z m90 13 c5
-3 5 -14 -1 -24 -9 -16 -15 -17 -40 -8 -31 10 -34 16 -24 42 4 12 11 13 31 5
14 -5 30 -12 34 -15z"/>
<path d="M2953 1268 c-18 -6 -33 -15 -33 -20 0 -5 9 -7 19 -3 16 5 22 -3 35
-42 15 -43 15 -49 1 -59 -27 -20 -16 -23 23 -8 47 20 67 38 31 29 -25 -6 -28
-3 -43 41 -9 26 -15 48 -13 49 1 1 11 7 22 13 25 14 3 14 -42 0z"/>
<path d="M2161 1193 c-7 -27 -14 -56 -17 -65 -4 -13 4 -19 33 -27 53 -15 77
-12 28 3 -29 9 -41 19 -43 36 -4 22 -1 23 40 17 l43 -6 -35 16 c-44 19 -42 17
-34 38 6 14 15 16 48 12 l41 -6 -35 14 c-53 21 -57 19 -69 -32z"/>
<path d="M2348 1143 c-5 -69 3 -83 48 -83 41 0 54 21 53 87 l-1 48 -9 -55
c-11 -65 -19 -75 -55 -66 -26 7 -27 8 -21 67 3 32 1 59 -3 59 -4 0 -10 -26
-12 -57z"/>
<path d="M2541 1168 c0 -13 4 -43 8 -68 7 -39 9 -41 10 -12 1 43 35 44 59 2 9
-16 21 -30 26 -30 4 0 0 12 -9 27 -12 18 -14 28 -7 31 7 2 12 19 12 38 l0 34
-50 0 c-45 0 -50 -2 -49 -22z m87 -10 c-2 -18 -11 -24 -35 -26 -30 -3 -33 -1
-33 22 0 23 4 26 36 26 31 0 35 -3 32 -22z"/>
</g>
</svg>
